<?xml version="1.0" encoding="UTF-8" standalone="no"?>
<!DOCTYPE svg PUBLIC "-//W3C//DTD SVG 1.1//EN"
 "http://www.w3.org/Graphics/SVG/1.1/DTD/svg11.dtd">
<!-- Generated by graphviz version 2.44.0 (0)
 -->
<!-- Pages: 1 -->
<svg width="680pt" height="345pt"
 viewBox="0.00 0.00 680.00 345.00" xmlns="http://www.w3.org/2000/svg" xmlns:xlink="http://www.w3.org/1999/xlink">
<g id="graph0" class="graph" transform="scale(1 1) rotate(0) translate(4 341)">
<polygon fill="#f6f6f6" stroke="transparent" points="-4,4 -4,-341 676,-341 676,4 -4,4"/>
<g id="clust1" class="cluster">
<title>cluster_127.0.0.1</title>
<polygon fill="#eceff1" stroke="black" points="8,-8 8,-329 664,-329 664,-8 8,-8"/>
<text text-anchor="middle" x="336" y="-313.8" font-family="Times-Roman" font-size="14.00">127.0.0.1</text>
</g>
<g id="clust2" class="cluster">
<title>cluster_namespace_default</title>
<polygon fill="#e3f2fd" stroke="black" points="16,-16 16,-298 656,-298 656,-16 16,-16"/>
<text text-anchor="middle" x="336" y="-282.8" font-family="Times-Roman" font-size="14.00">default</text>
</g>
<!-- 06eb890a&#45;a405&#45;632d&#45;f261&#45;b27cc4e306eb -->
<g id="node1" class="node">
<title>06eb890a&#45;a405&#45;632d&#45;f261&#45;b27cc4e306eb</title>
<polygon fill="#ffffff" stroke="#d3d3d3" points="541,-25 541,-71 648,-71 648,-25 541,-25"/>
<text text-anchor="start" x="549" y="-55.8" font-family="Times-Roman" font-size="14.00">Container</text>
<polyline fill="none" stroke="#d3d3d3" points="541,-48 648,-48 "/>
<text text-anchor="start" x="549" y="-32.8" font-family="Times-Roman" font-size="14.00">guestbook&#45;ui</text>
</g>
<!-- 0f3dfae8&#45;4535&#45;eca4&#45;f3c9&#45;251f85156ea9 -->
<g id="node2" class="node">
<title>0f3dfae8&#45;4535&#45;eca4&#45;f3c9&#45;251f85156ea9</title>
<polygon fill="#ffffff" stroke="#d3d3d3" points="541,-155 541,-201 648,-201 648,-155 541,-155"/>
<text text-anchor="start" x="549" y="-185.8" font-family="Times-Roman" font-size="14.00">Container</text>
<polyline fill="none" stroke="#d3d3d3" points="541,-178 648,-178 "/>
<text text-anchor="start" x="549" y="-162.8" font-family="Times-Roman" font-size="14.00">guestbook&#45;ui</text>
</g>
<!-- 3440375b&#45;8d27&#45;4534&#45;a7e7&#45;b9fcf4972da1 -->
<g id="node3" class="node">
<title>3440375b&#45;8d27&#45;4534&#45;a7e7&#45;b9fcf4972da1</title>
<polygon fill="#ffffff" stroke="#d3d3d3" points="262.5,-25 262.5,-71 501.5,-71 501.5,-25 262.5,-25"/>
<text text-anchor="start" x="270.5" y="-55.8" font-family="Times-Roman" font-size="14.00">Pod</text>
<polyline fill="none" stroke="#d3d3d3" points="262.5,-48 501.5,-48 "/>
<text text-anchor="start" x="270.5" y="-32.8" font-family="Times-Roman" font-size="14.00">guestbook&#45;ui&#45;7867f599d6&#45;jlm4f</text>
</g>
<!-- 3440375b&#45;8d27&#45;4534&#45;a7e7&#45;b9fcf4972da1&#45;&gt;06eb890a&#45;a405&#45;632d&#45;f261&#45;b27cc4e306eb -->
<g id="edge1" class="edge">
<title>3440375b&#45;8d27&#45;4534&#45;a7e7&#45;b9fcf4972da1&#45;&gt;06eb890a&#45;a405&#45;632d&#45;f261&#45;b27cc4e306eb</title>
<path fill="none" stroke="#4284f3" d="M501.78,-48C511.68,-48 521.41,-48 530.62,-48"/>
<polygon fill="#4284f3" stroke="#4284f3" points="530.78,-51.5 540.78,-48 530.78,-44.5 530.78,-51.5"/>
</g>
<!-- 7d53181e&#45;0a25&#45;4a63&#45;a303&#45;9d9ce09f2514 -->
<g id="node4" class="node">
<title>7d53181e&#45;0a25&#45;4a63&#45;a303&#45;9d9ce09f2514</title>
<polygon fill="#ffffff" stroke="#d3d3d3" points="43,-220 43,-266 204,-266 204,-220 43,-220"/>
<text text-anchor="start" x="51" y="-250.8" font-family="Times-Roman" font-size="14.00">NetworkPolicy</text>
<polyline fill="none" stroke="#d3d3d3" points="43,-243 204,-243 "/>
<text text-anchor="start" x="51" y="-227.8" font-family="Times-Roman" font-size="14.00">default&#45;deny&#45;ingress</text>
</g>
<!-- 7d53181e&#45;0a25&#45;4a63&#45;a303&#45;9d9ce09f2514&#45;&gt;3440375b&#45;8d27&#45;4534&#45;a7e7&#45;b9fcf4972da1 -->
<g id="edge2" class="edge">
<title>7d53181e&#45;0a25&#45;4a63&#45;a303&#45;9d9ce09f2514&#45;&gt;3440375b&#45;8d27&#45;4534&#45;a7e7&#45;b9fcf4972da1</title>
<path fill="none" stroke="#4284f3" d="M204.02,-225.27C211.03,-221.41 217.53,-216.72 223,-211 264.45,-167.69 216.48,-123.27 259,-81 260.28,-79.72 261.61,-78.5 262.98,-77.31"/>
<polygon fill="#4284f3" stroke="#4284f3" points="265.38,-79.88 271.22,-71.04 261.14,-74.31 265.38,-79.88"/>
</g>
<!-- 8638bf7c&#45;71ea&#45;4c38&#45;aa76&#45;f87b04db16e9 -->
<g id="node6" class="node">
<title>8638bf7c&#45;71ea&#45;4c38&#45;aa76&#45;f87b04db16e9</title>
<polygon fill="#ffffff" stroke="#d3d3d3" points="259.5,-90 259.5,-136 504.5,-136 504.5,-90 259.5,-90"/>
<text text-anchor="start" x="267.5" y="-120.8" font-family="Times-Roman" font-size="14.00">Pod</text>
<polyline fill="none" stroke="#d3d3d3" points="259.5,-113 504.5,-113 "/>
<text text-anchor="start" x="267.5" y="-97.8" font-family="Times-Roman" font-size="14.00">guestbook&#45;ui&#45;7867f599d6&#45;qvt25</text>
</g>
<!-- 7d53181e&#45;0a25&#45;4a63&#45;a303&#45;9d9ce09f2514&#45;&gt;8638bf7c&#45;71ea&#45;4c38&#45;aa76&#45;f87b04db16e9 -->
<g id="edge3" class="edge">
<title>7d53181e&#45;0a25&#45;4a63&#45;a303&#45;9d9ce09f2514&#45;&gt;8638bf7c&#45;71ea&#45;4c38&#45;aa76&#45;f87b04db16e9</title>
<path fill="none" stroke="#4284f3" d="M204.19,-223.12C210.92,-219.7 217.31,-215.69 223,-211 248.48,-189.99 233,-166.37 259,-146 261.08,-144.37 263.23,-142.82 265.44,-141.35"/>
<polygon fill="#4284f3" stroke="#4284f3" points="267.51,-144.2 274.27,-136.05 263.9,-138.2 267.51,-144.2"/>
</g>
<!-- d415ffa9&#45;3403&#45;49f8&#45;9bfd&#45;6f0a2e6f6fce -->
<g id="node9" class="node">
<title>d415ffa9&#45;3403&#45;49f8&#45;9bfd&#45;6f0a2e6f6fce</title>
<polygon fill="#ffffff" stroke="#d3d3d3" points="259,-155 259,-201 505,-201 505,-155 259,-155"/>
<text text-anchor="start" x="267" y="-185.8" font-family="Times-Roman" font-size="14.00">Pod</text>
<polyline fill="none" stroke="#d3d3d3" points="259,-178 505,-178 "/>
<text text-anchor="start" x="267" y="-162.8" font-family="Times-Roman" font-size="14.00">guestbook&#45;ui&#45;7867f599d6&#45;v56cd</text>
</g>
<!-- 7d53181e&#45;0a25&#45;4a63&#45;a303&#45;9d9ce09f2514&#45;&gt;d415ffa9&#45;3403&#45;49f8&#45;9bfd&#45;6f0a2e6f6fce -->
<g id="edge5" class="edge">
<title>7d53181e&#45;0a25&#45;4a63&#45;a303&#45;9d9ce09f2514&#45;&gt;d415ffa9&#45;3403&#45;49f8&#45;9bfd&#45;6f0a2e6f6fce</title>
<path fill="none" stroke="#4284f3" d="M204.25,-222.79C228.27,-216.7 254.95,-209.94 280.15,-203.56"/>
<polygon fill="#4284f3" stroke="#4284f3" points="281.26,-206.89 290.1,-201.04 279.54,-200.1 281.26,-206.89"/>
</g>
<!-- dd93b893&#45;412a&#45;47c3&#45;86e1&#45;7ea506d8e136 -->
<g id="node10" class="node">
<title>dd93b893&#45;412a&#45;47c3&#45;86e1&#45;7ea506d8e136</title>
<polygon fill="#ffffff" stroke="#d3d3d3" points="262.5,-220 262.5,-266 501.5,-266 501.5,-220 262.5,-220"/>
<text text-anchor="start" x="270.5" y="-250.8" font-family="Times-Roman" font-size="14.00">Pod</text>
<polyline fill="none" stroke="#d3d3d3" points="262.5,-243 501.5,-243 "/>
<text text-anchor="start" x="270.5" y="-227.8" font-family="Times-Roman" font-size="14.00">guestbook&#45;ui&#45;7867f599d6&#45;ttc2c</text>
</g>
<!-- 7d53181e&#45;0a25&#45;4a63&#45;a303&#45;9d9ce09f2514&#45;&gt;dd93b893&#45;412a&#45;47c3&#45;86e1&#45;7ea506d8e136 -->
<g id="edge4" class="edge">
<title>7d53181e&#45;0a25&#45;4a63&#45;a303&#45;9d9ce09f2514&#45;&gt;dd93b893&#45;412a&#45;47c3&#45;86e1&#45;7ea506d8e136</title>
<path fill="none" stroke="#4284f3" d="M204.25,-243C219.48,-243 235.77,-243 252.07,-243"/>
<polygon fill="#4284f3" stroke="#4284f3" points="252.22,-246.5 262.22,-243 252.22,-239.5 252.22,-246.5"/>
</g>
<!-- 82dcba0c&#45;aa40&#45;4d68&#45;b31c&#45;c2ce8805cc69 -->
<g id="node5" class="node">
<title>82dcba0c&#45;aa40&#45;4d68&#45;b31c&#45;c2ce8805cc69</title>
<polygon fill="#ffffff" stroke="#d3d3d3" points="24,-155 24,-201 223,-201 223,-155 24,-155"/>
<text text-anchor="start" x="32" y="-185.8" font-family="Times-Roman" font-size="14.00">ReplicaSet</text>
<polyline fill="none" stroke="#d3d3d3" points="24,-178 223,-178 "/>
<text text-anchor="start" x="32" y="-162.8" font-family="Times-Roman" font-size="14.00">guestbook&#45;ui&#45;7867f599d6</text>
</g>
<!-- 82dcba0c&#45;aa40&#45;4d68&#45;b31c&#45;c2ce8805cc69&#45;&gt;3440375b&#45;8d27&#45;4534&#45;a7e7&#45;b9fcf4972da1 -->
<g id="edge6" class="edge">
<title>82dcba0c&#45;aa40&#45;4d68&#45;b31c&#45;c2ce8805cc69&#45;&gt;3440375b&#45;8d27&#45;4534&#45;a7e7&#45;b9fcf4972da1</title>
<path fill="none" stroke="#4284f3" d="M210,-154.96C214.6,-152.29 218.98,-149.32 223,-146 248.48,-124.99 233,-101.37 259,-81 261.08,-79.37 263.23,-77.82 265.44,-76.35"/>
<polygon fill="#4284f3" stroke="#4284f3" points="267.51,-79.2 274.27,-71.05 263.9,-73.2 267.51,-79.2"/>
</g>
<!-- 82dcba0c&#45;aa40&#45;4d68&#45;b31c&#45;c2ce8805cc69&#45;&gt;8638bf7c&#45;71ea&#45;4c38&#45;aa76&#45;f87b04db16e9 -->
<g id="edge7" class="edge">
<title>82dcba0c&#45;aa40&#45;4d68&#45;b31c&#45;c2ce8805cc69&#45;&gt;8638bf7c&#45;71ea&#45;4c38&#45;aa76&#45;f87b04db16e9</title>
<path fill="none" stroke="#4284f3" d="M215.29,-154.99C236.29,-149.67 258.75,-143.98 280.15,-138.56"/>
<polygon fill="#4284f3" stroke="#4284f3" points="281.06,-141.94 289.9,-136.09 279.34,-135.15 281.06,-141.94"/>
</g>
<!-- 82dcba0c&#45;aa40&#45;4d68&#45;b31c&#45;c2ce8805cc69&#45;&gt;d415ffa9&#45;3403&#45;49f8&#45;9bfd&#45;6f0a2e6f6fce -->
<g id="edge9" class="edge">
<title>82dcba0c&#45;aa40&#45;4d68&#45;b31c&#45;c2ce8805cc69&#45;&gt;d415ffa9&#45;3403&#45;49f8&#45;9bfd&#45;6f0a2e6f6fce</title>
<path fill="none" stroke="#4284f3" d="M223.3,-178C231.53,-178 239.93,-178 248.35,-178"/>
<polygon fill="#4284f3" stroke="#4284f3" points="248.63,-181.5 258.63,-178 248.63,-174.5 248.63,-181.5"/>
</g>
<!-- 82dcba0c&#45;aa40&#45;4d68&#45;b31c&#45;c2ce8805cc69&#45;&gt;dd93b893&#45;412a&#45;47c3&#45;86e1&#45;7ea506d8e136 -->
<g id="edge8" class="edge">
<title>82dcba0c&#45;aa40&#45;4d68&#45;b31c&#45;c2ce8805cc69&#45;&gt;dd93b893&#45;412a&#45;47c3&#45;86e1&#45;7ea506d8e136</title>
<path fill="none" stroke="#4284f3" d="M215.29,-201.01C236.29,-206.33 258.75,-212.02 280.15,-217.44"/>
<polygon fill="#4284f3" stroke="#4284f3" points="279.34,-220.85 289.9,-219.91 281.06,-214.06 279.34,-220.85"/>
</g>
<!-- e32de320&#45;9388&#45;bc24&#45;aacb&#45;9f1dc4b45945 -->
<g id="node11" class="node">
<title>e32de320&#45;9388&#45;bc24&#45;aacb&#45;9f1dc4b45945</title>
<polygon fill="#ffffff" stroke="#d3d3d3" points="541,-90 541,-136 648,-136 648,-90 541,-90"/>
<text text-anchor="start" x="549" y="-120.8" font-family="Times-Roman" font-size="14.00">Container</text>
<polyline fill="none" stroke="#d3d3d3" points="541,-113 648,-113 "/>
<text text-anchor="start" x="549" y="-97.8" font-family="Times-Roman" font-size="14.00">guestbook&#45;ui</text>
</g>
<!-- 8638bf7c&#45;71ea&#45;4c38&#45;aa76&#45;f87b04db16e9&#45;&gt;e32de320&#45;9388&#45;bc24&#45;aacb&#45;9f1dc4b45945 -->
<g id="edge10" class="edge">
<title>8638bf7c&#45;71ea&#45;4c38&#45;aa76&#45;f87b04db16e9&#45;&gt;e32de320&#45;9388&#45;bc24&#45;aacb&#45;9f1dc4b45945</title>
<path fill="none" stroke="#4284f3" d="M504.53,-113C513.38,-113 522.07,-113 530.34,-113"/>
<polygon fill="#4284f3" stroke="#4284f3" points="530.58,-116.5 540.58,-113 530.58,-109.5 530.58,-116.5"/>
</g>
<!-- a0c7e774&#45;a7dc&#45;ac4c&#45;2c4c&#45;cbcdbf02a13e -->
<g id="node7" class="node">
<title>a0c7e774&#45;a7dc&#45;ac4c&#45;2c4c&#45;cbcdbf02a13e</title>
<polygon fill="#ffffff" stroke="#d3d3d3" points="541,-220 541,-266 648,-266 648,-220 541,-220"/>
<text text-anchor="start" x="549" y="-250.8" font-family="Times-Roman" font-size="14.00">Container</text>
<polyline fill="none" stroke="#d3d3d3" points="541,-243 648,-243 "/>
<text text-anchor="start" x="549" y="-227.8" font-family="Times-Roman" font-size="14.00">guestbook&#45;ui</text>
</g>
<!-- c38708ae&#45;940b&#45;4ab0&#45;a5f7&#45;e783fc44e56c -->
<g id="node8" class="node">
<title>c38708ae&#45;940b&#45;4ab0&#45;a5f7&#45;e783fc44e56c</title>
<polygon fill="#ffffff" stroke="#d3d3d3" points="59.5,-90 59.5,-136 187.5,-136 187.5,-90 59.5,-90"/>
<text text-anchor="start" x="67.5" y="-120.8" font-family="Times-Roman" font-size="14.00">NetworkPolicy</text>
<polyline fill="none" stroke="#d3d3d3" points="59.5,-113 187.5,-113 "/>
<text text-anchor="start" x="67.5" y="-97.8" font-family="Times-Roman" font-size="14.00">allow&#45;all&#45;ingress</text>
</g>
<!-- c38708ae&#45;940b&#45;4ab0&#45;a5f7&#45;e783fc44e56c&#45;&gt;3440375b&#45;8d27&#45;4534&#45;a7e7&#45;b9fcf4972da1 -->
<g id="edge11" class="edge">
<title>c38708ae&#45;940b&#45;4ab0&#45;a5f7&#45;e783fc44e56c&#45;&gt;3440375b&#45;8d27&#45;4534&#45;a7e7&#45;b9fcf4972da1</title>
<path fill="none" stroke="#4284f3" d="M187.58,-97.02C215.42,-89.96 248.84,-81.49 280.01,-73.59"/>
<polygon fill="#4284f3" stroke="#4284f3" points="281.2,-76.9 290.04,-71.05 279.48,-70.11 281.2,-76.9"/>
</g>
<!-- c38708ae&#45;940b&#45;4ab0&#45;a5f7&#45;e783fc44e56c&#45;&gt;8638bf7c&#45;71ea&#45;4c38&#45;aa76&#45;f87b04db16e9 -->
<g id="edge12" class="edge">
<title>c38708ae&#45;940b&#45;4ab0&#45;a5f7&#45;e783fc44e56c&#45;&gt;8638bf7c&#45;71ea&#45;4c38&#45;aa76&#45;f87b04db16e9</title>
<path fill="none" stroke="#4284f3" d="M187.58,-113C206.4,-113 227.77,-113 249.28,-113"/>
<polygon fill="#4284f3" stroke="#4284f3" points="249.5,-116.5 259.5,-113 249.5,-109.5 249.5,-116.5"/>
</g>
<!-- c38708ae&#45;940b&#45;4ab0&#45;a5f7&#45;e783fc44e56c&#45;&gt;d415ffa9&#45;3403&#45;49f8&#45;9bfd&#45;6f0a2e6f6fce -->
<g id="edge14" class="edge">
<title>c38708ae&#45;940b&#45;4ab0&#45;a5f7&#45;e783fc44e56c&#45;&gt;d415ffa9&#45;3403&#45;49f8&#45;9bfd&#45;6f0a2e6f6fce</title>
<path fill="none" stroke="#4284f3" d="M187.58,-128.98C215.42,-136.04 248.84,-144.51 280.01,-152.41"/>
<polygon fill="#4284f3" stroke="#4284f3" points="279.48,-155.89 290.04,-154.95 281.2,-149.1 279.48,-155.89"/>
</g>
<!-- c38708ae&#45;940b&#45;4ab0&#45;a5f7&#45;e783fc44e56c&#45;&gt;dd93b893&#45;412a&#45;47c3&#45;86e1&#45;7ea506d8e136 -->
<g id="edge13" class="edge">
<title>c38708ae&#45;940b&#45;4ab0&#45;a5f7&#45;e783fc44e56c&#45;&gt;dd93b893&#45;412a&#45;47c3&#45;86e1&#45;7ea506d8e136</title>
<path fill="none" stroke="#4284f3" d="M187.51,-126.38C200.18,-131.1 212.74,-137.46 223,-146 248.38,-167.13 232.93,-190.73 259,-211 260.59,-212.23 262.22,-213.42 263.89,-214.56"/>
<polygon fill="#4284f3" stroke="#4284f3" points="262.18,-217.62 272.53,-219.9 265.86,-211.67 262.18,-217.62"/>
</g>
<!-- d415ffa9&#45;3403&#45;49f8&#45;9bfd&#45;6f0a2e6f6fce&#45;&gt;0f3dfae8&#45;4535&#45;eca4&#45;f3c9&#45;251f85156ea9 -->
<g id="edge15" class="edge">
<title>d415ffa9&#45;3403&#45;49f8&#45;9bfd&#45;6f0a2e6f6fce&#45;&gt;0f3dfae8&#45;4535&#45;eca4&#45;f3c9&#45;251f85156ea9</title>
<path fill="none" stroke="#4284f3" d="M505.14,-178C513.94,-178 522.58,-178 530.8,-178"/>
<polygon fill="#4284f3" stroke="#4284f3" points="530.97,-181.5 540.97,-178 530.97,-174.5 530.97,-181.5"/>
</g>
<!-- dd93b893&#45;412a&#45;47c3&#45;86e1&#45;7ea506d8e136&#45;&gt;a0c7e774&#45;a7dc&#45;ac4c&#45;2c4c&#45;cbcdbf02a13e -->
<g id="edge16" class="edge">
<title>dd93b893&#45;412a&#45;47c3&#45;86e1&#45;7ea506d8e136&#45;&gt;a0c7e774&#45;a7dc&#45;ac4c&#45;2c4c&#45;cbcdbf02a13e</title>
<path fill="none" stroke="#4284f3" d="M501.78,-243C511.68,-243 521.41,-243 530.62,-243"/>
<polygon fill="#4284f3" stroke="#4284f3" points="530.78,-246.5 540.78,-243 530.78,-239.5 530.78,-246.5"/>
</g>
<!-- eeef573f&#45;0089&#45;4d3f&#45;b6ab&#45;fec506be704b -->
<g id="node12" class="node">
<title>eeef573f&#45;0089&#45;4d3f&#45;b6ab&#45;fec506be704b</title>
<polygon fill="#ffffff" stroke="#d3d3d3" points="61.5,-25 61.5,-71 185.5,-71 185.5,-25 61.5,-25"/>
<text text-anchor="start" x="69.5" y="-55.8" font-family="Times-Roman" font-size="14.00">NetworkPolicy</text>
<polyline fill="none" stroke="#d3d3d3" points="61.5,-48 185.5,-48 "/>
<text text-anchor="start" x="69.5" y="-32.8" font-family="Times-Roman" font-size="14.00">allow&#45;all&#45;egress</text>
</g>
<!-- eeef573f&#45;0089&#45;4d3f&#45;b6ab&#45;fec506be704b&#45;&gt;3440375b&#45;8d27&#45;4534&#45;a7e7&#45;b9fcf4972da1 -->
<g id="edge17" class="edge">
<title>eeef573f&#45;0089&#45;4d3f&#45;b6ab&#45;fec506be704b&#45;&gt;3440375b&#45;8d27&#45;4534&#45;a7e7&#45;b9fcf4972da1</title>
<path fill="none" stroke="#4284f3" d="M185.61,-48C205.68,-48 228.81,-48 251.97,-48"/>
<polygon fill="#4284f3" stroke="#4284f3" points="252.25,-51.5 262.25,-48 252.25,-44.5 252.25,-51.5"/>
</g>
<!-- eeef573f&#45;0089&#45;4d3f&#45;b6ab&#45;fec506be704b&#45;&gt;8638bf7c&#45;71ea&#45;4c38&#45;aa76&#45;f87b04db16e9 -->
<g id="edge18" class="edge">
<title>eeef573f&#45;0089&#45;4d3f&#45;b6ab&#45;fec506be704b&#45;&gt;8638bf7c&#45;71ea&#45;4c38&#45;aa76&#45;f87b04db16e9</title>
<path fill="none" stroke="#4284f3" d="M185.61,-63.49C213.95,-70.67 248.37,-79.39 280.38,-87.5"/>
<polygon fill="#4284f3" stroke="#4284f3" points="279.68,-90.93 290.23,-90 281.4,-84.15 279.68,-90.93"/>
</g>
<!-- eeef573f&#45;0089&#45;4d3f&#45;b6ab&#45;fec506be704b&#45;&gt;d415ffa9&#45;3403&#45;49f8&#45;9bfd&#45;6f0a2e6f6fce -->
<g id="edge20" class="edge">
<title>eeef573f&#45;0089&#45;4d3f&#45;b6ab&#45;fec506be704b&#45;&gt;d415ffa9&#45;3403&#45;49f8&#45;9bfd&#45;6f0a2e6f6fce</title>
<path fill="none" stroke="#4284f3" d="M185.71,-60.72C198.99,-65.51 212.26,-72.06 223,-81 248.38,-102.13 232.93,-125.73 259,-146 260.59,-147.23 262.22,-148.42 263.89,-149.56"/>
<polygon fill="#4284f3" stroke="#4284f3" points="262.18,-152.62 272.53,-154.9 265.86,-146.67 262.18,-152.62"/>
</g>
<!-- eeef573f&#45;0089&#45;4d3f&#45;b6ab&#45;fec506be704b&#45;&gt;dd93b893&#45;412a&#45;47c3&#45;86e1&#45;7ea506d8e136 -->
<g id="edge19" class="edge">
<title>eeef573f&#45;0089&#45;4d3f&#45;b6ab&#45;fec506be704b&#45;&gt;dd93b893&#45;412a&#45;47c3&#45;86e1&#45;7ea506d8e136</title>
<path fill="none" stroke="#4284f3" d="M185.57,-58.32C199.4,-63.2 212.95,-70.4 223,-81 264.25,-124.5 216.32,-168.9 259,-211 259.94,-211.93 260.91,-212.83 261.9,-213.71"/>
<polygon fill="#4284f3" stroke="#4284f3" points="259.84,-216.55 269.87,-219.96 264.16,-211.04 259.84,-216.55"/>
</g>
</g>
</svg>
