<?xml version="1.0" encoding="UTF-8" standalone="no"?>
<!DOCTYPE svg PUBLIC "-//W3C//DTD SVG 1.1//EN"
 "http://www.w3.org/Graphics/SVG/1.1/DTD/svg11.dtd">
<!-- Generated by graphviz version 2.44.0 (0)
 -->
<!-- Pages: 1 -->
<svg width="823pt" height="345pt"
 viewBox="0.00 0.00 823.00 345.00" xmlns="http://www.w3.org/2000/svg" xmlns:xlink="http://www.w3.org/1999/xlink">
<g id="graph0" class="graph" transform="scale(1 1) rotate(0) translate(4 341)">
<polygon fill="#f6f6f6" stroke="transparent" points="-4,4 -4,-341 819,-341 819,4 -4,4"/>
<g id="clust1" class="cluster">
<title>cluster_127.0.0.1</title>
<polygon fill="#eceff1" stroke="black" points="8,-8 8,-329 807,-329 807,-8 8,-8"/>
<text text-anchor="middle" x="407.5" y="-313.8" font-family="Times-Roman" font-size="14.00">127.0.0.1</text>
</g>
<g id="clust2" class="cluster">
<title>cluster_namespace_default</title>
<polygon fill="#e3f2fd" stroke="black" points="16,-16 16,-298 799,-298 799,-16 16,-16"/>
<text text-anchor="middle" x="407.5" y="-282.8" font-family="Times-Roman" font-size="14.00">default</text>
</g>
<!-- 06eb890a&#45;a405&#45;632d&#45;f261&#45;b27cc4e306eb -->
<g id="node1" class="node">
<title>06eb890a&#45;a405&#45;632d&#45;f261&#45;b27cc4e306eb</title>
<polygon fill="#ffffff" stroke="#d3d3d3" points="684,-25 684,-71 791,-71 791,-25 684,-25"/>
<text text-anchor="start" x="692" y="-55.8" font-family="Times-Roman" font-size="14.00">Container</text>
<polyline fill="none" stroke="#d3d3d3" points="684,-48 791,-48 "/>
<text text-anchor="start" x="692" y="-32.8" font-family="Times-Roman" font-size="14.00">guestbook&#45;ui</text>
</g>
<!-- 0f3dfae8&#45;4535&#45;eca4&#45;f3c9&#45;251f85156ea9 -->
<g id="node2" class="node">
<title>0f3dfae8&#45;4535&#45;eca4&#45;f3c9&#45;251f85156ea9</title>
<polygon fill="#ffffff" stroke="#d3d3d3" points="684,-155 684,-201 791,-201 791,-155 684,-155"/>
<text text-anchor="start" x="692" y="-185.8" font-family="Times-Roman" font-size="14.00">Container</text>
<polyline fill="none" stroke="#d3d3d3" points="684,-178 791,-178 "/>
<text text-anchor="start" x="692" y="-162.8" font-family="Times-Roman" font-size="14.00">guestbook&#45;ui</text>
</g>
<!-- 3440375b&#45;8d27&#45;4534&#45;a7e7&#45;b9fcf4972da1 -->
<g id="node3" class="node">
<title>3440375b&#45;8d27&#45;4534&#45;a7e7&#45;b9fcf4972da1</title>
<polygon fill="#ffffff" stroke="#d3d3d3" points="405.5,-25 405.5,-71 644.5,-71 644.5,-25 405.5,-25"/>
<text text-anchor="start" x="413.5" y="-55.8" font-family="Times-Roman" font-size="14.00">Pod</text>
<polyline fill="none" stroke="#d3d3d3" points="405.5,-48 644.5,-48 "/>
<text text-anchor="start" x="413.5" y="-32.8" font-family="Times-Roman" font-size="14.00">guestbook&#45;ui&#45;7867f599d6&#45;jlm4f</text>
</g>
<!-- 3440375b&#45;8d27&#45;4534&#45;a7e7&#45;b9fcf4972da1&#45;&gt;06eb890a&#45;a405&#45;632d&#45;f261&#45;b27cc4e306eb -->
<g id="edge1" class="edge">
<title>3440375b&#45;8d27&#45;4534&#45;a7e7&#45;b9fcf4972da1&#45;&gt;06eb890a&#45;a405&#45;632d&#45;f261&#45;b27cc4e306eb</title>
<path fill="none" stroke="#4284f3" d="M644.78,-48C654.68,-48 664.41,-48 673.62,-48"/>
<polygon fill="#4284f3" stroke="#4284f3" points="673.78,-51.5 683.78,-48 673.78,-44.5 673.78,-51.5"/>
</g>
<!-- 82dcba0c&#45;aa40&#45;4d68&#45;b31c&#45;c2ce8805cc69 -->
<g id="node4" class="node">
<title>82dcba0c&#45;aa40&#45;4d68&#45;b31c&#45;c2ce8805cc69</title>
<polygon fill="#ffffff" stroke="#d3d3d3" points="167,-122 167,-168 366,-168 366,-122 167,-122"/>
<text text-anchor="start" x="175" y="-152.8" font-family="Times-Roman" font-size="14.00">ReplicaSet</text>
<polyline fill="none" stroke="#d3d3d3" points="167,-145 366,-145 "/>
<text text-anchor="start" x="175" y="-129.8" font-family="Times-Roman" font-size="14.00">guestbook&#45;ui&#45;7867f599d6</text>
</g>
<!-- 82dcba0c&#45;aa40&#45;4d68&#45;b31c&#45;c2ce8805cc69&#45;&gt;3440375b&#45;8d27&#45;4534&#45;a7e7&#45;b9fcf4972da1 -->
<g id="edge2" class="edge">
<title>82dcba0c&#45;aa40&#45;4d68&#45;b31c&#45;c2ce8805cc69&#45;&gt;3440375b&#45;8d27&#45;4534&#45;a7e7&#45;b9fcf4972da1</title>
<path fill="none" stroke="#4284f3" d="M310.86,-121.92C336.8,-108.73 370.71,-92.57 402,-81 408.43,-78.62 415.11,-76.33 421.88,-74.15"/>
<polygon fill="#4284f3" stroke="#4284f3" points="423.35,-77.35 431.84,-71.02 421.25,-70.68 423.35,-77.35"/>
</g>
<!-- 8638bf7c&#45;71ea&#45;4c38&#45;aa76&#45;f87b04db16e9 -->
<g id="node5" class="node">
<title>8638bf7c&#45;71ea&#45;4c38&#45;aa76&#45;f87b04db16e9</title>
<polygon fill="#ffffff" stroke="#d3d3d3" points="402.5,-90 402.5,-136 647.5,-136 647.5,-90 402.5,-90"/>
<text text-anchor="start" x="410.5" y="-120.8" font-family="Times-Roman" font-size="14.00">Pod</text>
<polyline fill="none" stroke="#d3d3d3" points="402.5,-113 647.5,-113 "/>
<text text-anchor="start" x="410.5" y="-97.8" font-family="Times-Roman" font-size="14.00">guestbook&#45;ui&#45;7867f599d6&#45;qvt25</text>
</g>
<!-- 82dcba0c&#45;aa40&#45;4d68&#45;b31c&#45;c2ce8805cc69&#45;&gt;8638bf7c&#45;71ea&#45;4c38&#45;aa76&#45;f87b04db16e9 -->
<g id="edge3" class="edge">
<title>82dcba0c&#45;aa40&#45;4d68&#45;b31c&#45;c2ce8805cc69&#45;&gt;8638bf7c&#45;71ea&#45;4c38&#45;aa76&#45;f87b04db16e9</title>
<path fill="none" stroke="#4284f3" d="M366.3,-132.67C374.92,-131.6 383.72,-130.5 392.54,-129.4"/>
<polygon fill="#4284f3" stroke="#4284f3" points="393.01,-132.87 402.5,-128.16 392.14,-125.92 393.01,-132.87"/>
</g>
<!-- d415ffa9&#45;3403&#45;49f8&#45;9bfd&#45;6f0a2e6f6fce -->
<g id="node9" class="node">
<title>d415ffa9&#45;3403&#45;49f8&#45;9bfd&#45;6f0a2e6f6fce</title>
<polygon fill="#ffffff" stroke="#d3d3d3" points="402,-155 402,-201 648,-201 648,-155 402,-155"/>
<text text-anchor="start" x="410" y="-185.8" font-family="Times-Roman" font-size="14.00">Pod</text>
<polyline fill="none" stroke="#d3d3d3" points="402,-178 648,-178 "/>
<text text-anchor="start" x="410" y="-162.8" font-family="Times-Roman" font-size="14.00">guestbook&#45;ui&#45;7867f599d6&#45;v56cd</text>
</g>
<!-- 82dcba0c&#45;aa40&#45;4d68&#45;b31c&#45;c2ce8805cc69&#45;&gt;d415ffa9&#45;3403&#45;49f8&#45;9bfd&#45;6f0a2e6f6fce -->
<g id="edge5" class="edge">
<title>82dcba0c&#45;aa40&#45;4d68&#45;b31c&#45;c2ce8805cc69&#45;&gt;d415ffa9&#45;3403&#45;49f8&#45;9bfd&#45;6f0a2e6f6fce</title>
<path fill="none" stroke="#4284f3" d="M366.3,-157.71C374.62,-158.78 383.11,-159.87 391.63,-160.97"/>
<polygon fill="#4284f3" stroke="#4284f3" points="391.26,-164.45 401.63,-162.26 392.16,-157.51 391.26,-164.45"/>
</g>
<!-- dd93b893&#45;412a&#45;47c3&#45;86e1&#45;7ea506d8e136 -->
<g id="node10" class="node">
<title>dd93b893&#45;412a&#45;47c3&#45;86e1&#45;7ea506d8e136</title>
<polygon fill="#ffffff" stroke="#d3d3d3" points="405.5,-220 405.5,-266 644.5,-266 644.5,-220 405.5,-220"/>
<text text-anchor="start" x="413.5" y="-250.8" font-family="Times-Roman" font-size="14.00">Pod</text>
<polyline fill="none" stroke="#d3d3d3" points="405.5,-243 644.5,-243 "/>
<text text-anchor="start" x="413.5" y="-227.8" font-family="Times-Roman" font-size="14.00">guestbook&#45;ui&#45;7867f599d6&#45;ttc2c</text>
</g>
<!-- 82dcba0c&#45;aa40&#45;4d68&#45;b31c&#45;c2ce8805cc69&#45;&gt;dd93b893&#45;412a&#45;47c3&#45;86e1&#45;7ea506d8e136 -->
<g id="edge4" class="edge">
<title>82dcba0c&#45;aa40&#45;4d68&#45;b31c&#45;c2ce8805cc69&#45;&gt;dd93b893&#45;412a&#45;47c3&#45;86e1&#45;7ea506d8e136</title>
<path fill="none" stroke="#4284f3" d="M346.26,-168.01C353.11,-171.01 359.79,-174.34 366,-178 384.7,-189.02 382.94,-200.61 402,-211 405.12,-212.7 408.34,-214.32 411.63,-215.85"/>
<polygon fill="#4284f3" stroke="#4284f3" points="410.49,-219.17 421.06,-219.95 413.28,-212.75 410.49,-219.17"/>
</g>
<!-- e32de320&#45;9388&#45;bc24&#45;aacb&#45;9f1dc4b45945 -->
<g id="node11" class="node">
<title>e32de320&#45;9388&#45;bc24&#45;aacb&#45;9f1dc4b45945</title>
<polygon fill="#ffffff" stroke="#d3d3d3" points="684,-90 684,-136 791,-136 791,-90 684,-90"/>
<text text-anchor="start" x="692" y="-120.8" font-family="Times-Roman" font-size="14.00">Container</text>
<polyline fill="none" stroke="#d3d3d3" points="684,-113 791,-113 "/>
<text text-anchor="start" x="692" y="-97.8" font-family="Times-Roman" font-size="14.00">guestbook&#45;ui</text>
</g>
<!-- 8638bf7c&#45;71ea&#45;4c38&#45;aa76&#45;f87b04db16e9&#45;&gt;e32de320&#45;9388&#45;bc24&#45;aacb&#45;9f1dc4b45945 -->
<g id="edge6" class="edge">
<title>8638bf7c&#45;71ea&#45;4c38&#45;aa76&#45;f87b04db16e9&#45;&gt;e32de320&#45;9388&#45;bc24&#45;aacb&#45;9f1dc4b45945</title>
<path fill="none" stroke="#4284f3" d="M647.53,-113C656.38,-113 665.07,-113 673.34,-113"/>
<polygon fill="#4284f3" stroke="#4284f3" points="673.58,-116.5 683.58,-113 673.58,-109.5 673.58,-116.5"/>
</g>
<!-- 8c56c62b&#45;b3d8&#45;40b4&#45;9b9d&#45;d8b9b92067c8 -->
<g id="node6" class="node">
<title>8c56c62b&#45;b3d8&#45;40b4&#45;9b9d&#45;d8b9b92067c8</title>
<polygon fill="#ffffff" stroke="#d3d3d3" points="24,-154 24,-200 131,-200 131,-154 24,-154"/>
<text text-anchor="start" x="32" y="-184.8" font-family="Times-Roman" font-size="14.00">Deployment</text>
<polyline fill="none" stroke="#d3d3d3" points="24,-177 131,-177 "/>
<text text-anchor="start" x="32" y="-161.8" font-family="Times-Roman" font-size="14.00">guestbook&#45;ui</text>
</g>
<!-- 8c56c62b&#45;b3d8&#45;40b4&#45;9b9d&#45;d8b9b92067c8&#45;&gt;82dcba0c&#45;aa40&#45;4d68&#45;b31c&#45;c2ce8805cc69 -->
<g id="edge7" class="edge">
<title>8c56c62b&#45;b3d8&#45;40b4&#45;9b9d&#45;d8b9b92067c8&#45;&gt;82dcba0c&#45;aa40&#45;4d68&#45;b31c&#45;c2ce8805cc69</title>
<path fill="none" stroke="#4284f3" d="M131.09,-168C139.25,-166.6 147.93,-165.12 156.8,-163.6"/>
<polygon fill="#4284f3" stroke="#4284f3" points="157.61,-167.01 166.87,-161.88 156.43,-160.11 157.61,-167.01"/>
</g>
<!-- cb682084&#45;9c61&#45;4872&#45;984e&#45;485b93404a61 -->
<g id="node8" class="node">
<title>cb682084&#45;9c61&#45;4872&#45;984e&#45;485b93404a61</title>
<polygon fill="#ffffff" stroke="#d3d3d3" points="175,-187 175,-233 358,-233 358,-187 175,-187"/>
<text text-anchor="start" x="183" y="-217.8" font-family="Times-Roman" font-size="14.00">ReplicaSet</text>
<polyline fill="none" stroke="#d3d3d3" points="175,-210 358,-210 "/>
<text text-anchor="start" x="183" y="-194.8" font-family="Times-Roman" font-size="14.00">guestbook&#45;ui&#45;cb44674d</text>
</g>
<!-- 8c56c62b&#45;b3d8&#45;40b4&#45;9b9d&#45;d8b9b92067c8&#45;&gt;cb682084&#45;9c61&#45;4872&#45;984e&#45;485b93404a61 -->
<g id="edge8" class="edge">
<title>8c56c62b&#45;b3d8&#45;40b4&#45;9b9d&#45;d8b9b92067c8&#45;&gt;cb682084&#45;9c61&#45;4872&#45;984e&#45;485b93404a61</title>
<path fill="none" stroke="#4284f3" d="M131.09,-186.28C141.62,-188.14 153,-190.15 164.55,-192.18"/>
<polygon fill="#4284f3" stroke="#4284f3" points="164.25,-195.69 174.71,-193.98 165.47,-188.79 164.25,-195.69"/>
</g>
<!-- a0c7e774&#45;a7dc&#45;ac4c&#45;2c4c&#45;cbcdbf02a13e -->
<g id="node7" class="node">
<title>a0c7e774&#45;a7dc&#45;ac4c&#45;2c4c&#45;cbcdbf02a13e</title>
<polygon fill="#ffffff" stroke="#d3d3d3" points="684,-220 684,-266 791,-266 791,-220 684,-220"/>
<text text-anchor="start" x="692" y="-250.8" font-family="Times-Roman" font-size="14.00">Container</text>
<polyline fill="none" stroke="#d3d3d3" points="684,-243 791,-243 "/>
<text text-anchor="start" x="692" y="-227.8" font-family="Times-Roman" font-size="14.00">guestbook&#45;ui</text>
</g>
<!-- d415ffa9&#45;3403&#45;49f8&#45;9bfd&#45;6f0a2e6f6fce&#45;&gt;0f3dfae8&#45;4535&#45;eca4&#45;f3c9&#45;251f85156ea9 -->
<g id="edge9" class="edge">
<title>d415ffa9&#45;3403&#45;49f8&#45;9bfd&#45;6f0a2e6f6fce&#45;&gt;0f3dfae8&#45;4535&#45;eca4&#45;f3c9&#45;251f85156ea9</title>
<path fill="none" stroke="#4284f3" d="M648.14,-178C656.94,-178 665.58,-178 673.8,-178"/>
<polygon fill="#4284f3" stroke="#4284f3" points="673.97,-181.5 683.97,-178 673.97,-174.5 673.97,-181.5"/>
</g>
<!-- dd93b893&#45;412a&#45;47c3&#45;86e1&#45;7ea506d8e136&#45;&gt;a0c7e774&#45;a7dc&#45;ac4c&#45;2c4c&#45;cbcdbf02a13e -->
<g id="edge10" class="edge">
<title>dd93b893&#45;412a&#45;47c3&#45;86e1&#45;7ea506d8e136&#45;&gt;a0c7e774&#45;a7dc&#45;ac4c&#45;2c4c&#45;cbcdbf02a13e</title>
<path fill="none" stroke="#4284f3" d="M644.78,-243C654.68,-243 664.41,-243 673.62,-243"/>
<polygon fill="#4284f3" stroke="#4284f3" points="673.78,-246.5 683.78,-243 673.78,-239.5 673.78,-246.5"/>
</g>
</g>
</svg>
